<?xml version="1.0" encoding="UTF-8"?>
<svg version="1.1" xmlns="http://www.w3.org/2000/svg" width="227" height="171">
<path d="M0 0 C74.91 0 149.82 0 227 0 C227 56.43 227 112.86 227 171 C152.09 171 77.18 171 0 171 C0 114.57 0 58.14 0 0 Z " fill="#35B97E" transform="translate(0,0)"/>
<path d="M0 0 C1.1653125 0.01804687 2.330625 0.03609375 3.53125 0.0546875 C6.39668249 0.1016618 9.26041168 0.16733707 12.125 0.25 C12.785 1.9 13.445 3.55 14.125 5.25 C15.41148438 5.24476318 16.69796875 5.23952637 18.0234375 5.23413086 C61.1867437 5.07443923 61.1867437 5.07443923 80.5 5.625 C81.75425781 5.65585693 83.00851563 5.68671387 84.30078125 5.71850586 C91.09963841 5.94435187 97.50982414 6.64110756 104.125 8.25 C104.125 8.91 104.125 9.57 104.125 10.25 C104.8675 9.92 105.61 9.59 106.375 9.25 C109.125 8.25 109.125 8.25 113.125 8.25 C113.125 9.24 113.125 10.23 113.125 11.25 C111.97837891 11.30607422 111.97837891 11.30607422 110.80859375 11.36328125 C88.5595432 12.72874645 67.37458185 19.43228907 51.57421875 35.91015625 C40.46170148 48.84141612 36.89232327 61.31882263 38.125 78.25 C38.93271462 81.51757279 39.71149045 84.44595366 41.25 87.4375 C42.125 89.25 42.125 89.25 42.125 93.25 C42.785 93.25 43.445 93.25 44.125 93.25 C45.16796875 94.71875 45.16796875 94.71875 46.3125 96.75 C51.16130472 104.77463003 57.95087492 113.19195831 67.125 116.25 C67.13917969 117.50296875 67.15335937 118.7559375 67.16796875 120.046875 C67.21487438 121.69795328 67.26312175 123.34899382 67.3125 125 C67.31830078 125.825 67.32410156 126.65 67.33007812 127.5 C67.48184803 131.68210399 67.55919175 133.60849184 70.40234375 136.83203125 C74.61470152 139.02584168 77.6316904 138.33620876 82.125 137.25 C84.55882441 136.33157569 86.78820754 135.36189738 89.125 134.25 C91.16171159 133.3635274 93.2038377 132.48943487 95.25 131.625 C96.24257812 131.19960937 97.23515625 130.77421875 98.2578125 130.3359375 C103.71506825 128.26902047 107.35045985 128.35413992 113.125 129.25 C113.17435509 134.62514905 113.21069802 140.00016685 113.23486328 145.37548828 C113.24493484 147.20493873 113.25859276 149.03437303 113.27587891 150.86376953 C113.30007677 153.48994934 113.31147132 156.11591675 113.3203125 158.7421875 C113.33063507 159.56306854 113.34095764 160.38394958 113.35159302 161.22970581 C113.35199184 163.23789142 113.2474954 165.24555382 113.125 167.25 C111.125 169.25 111.125 169.25 108.16796875 169.73828125 C102.57906725 169.56097021 98.09760343 166.2378661 93.4375 163.4375 C91.3951558 162.24632436 89.35217407 161.05624121 87.30859375 159.8671875 C86.2810498 159.26358398 85.25350586 158.65998047 84.19482422 158.03808594 C79.5036616 155.30561615 74.75742833 152.67737492 70 150.0625 C68.76697144 149.37740356 68.76697144 149.37740356 67.5090332 148.6784668 C66.74034912 148.25476807 65.97166504 147.83106934 65.1796875 147.39453125 C64.51437012 147.02690674 63.84905273 146.65928223 63.16357422 146.28051758 C62.49084473 145.94044678 61.81811523 145.60037598 61.125 145.25 C60.3724292 144.80906006 59.6198584 144.36812012 58.84448242 143.91381836 C54.79906615 142.92634311 52.08617862 144.65715699 48.55859375 146.484375 C47.48473167 147.0142099 47.48473167 147.0142099 46.38917542 147.55474854 C44.10491166 148.68659725 41.83397663 149.84273737 39.5625 151 C38.03011189 151.76465633 36.49691604 152.52769621 34.96289062 153.2890625 C27.87827561 156.78649688 27.87827561 156.78649688 20.89477539 160.47753906 C18.03219288 161.72698189 15.19530442 161.36808863 12.125 161.25 C12.125 160.59 12.125 159.93 12.125 159.25 C5.08227783 161.2987919 -1.31230731 164.26384598 -7.84545898 167.55664062 C-14.7773175 170.95571199 -14.7773175 170.95571199 -18.875 170.25 C-21.64860669 167.47639331 -21.12646846 165.84888044 -21.12896729 161.96218872 C-21.13208727 161.30993376 -21.13520725 160.65767879 -21.13842177 159.98565853 C-21.14642832 157.78999026 -21.14006791 155.59459633 -21.13378906 153.39892578 C-21.13649781 151.82878456 -21.14005808 150.25864461 -21.14440918 148.68850708 C-21.15355087 144.41573442 -21.14998123 140.14305801 -21.14365101 135.8702836 C-21.13859842 131.40382528 -21.14328056 126.93737538 -21.14642334 122.47091675 C-21.15006591 114.96708696 -21.14525707 107.46329648 -21.13574219 99.95947266 C-21.124865 91.28100558 -21.12837669 82.60263253 -21.139395 73.92416775 C-21.14846906 66.47953235 -21.14975233 59.03492528 -21.14451766 51.59028614 C-21.1413976 47.14122087 -21.14098946 42.6921998 -21.14759064 38.24313736 C-21.15336492 34.05873844 -21.14936568 29.87446074 -21.13780212 25.69007492 C-21.13515564 24.15337577 -21.13592044 22.61666643 -21.14032745 21.07997131 C-21.14578506 18.98376896 -21.13894636 16.88795605 -21.12896729 14.79177856 C-21.12821323 13.61816835 -21.12745918 12.44455814 -21.12668228 11.23538399 C-20.76158185 6.90466601 -19.65876038 5.00473222 -16.5546875 2.015625 C-11.62230904 -1.0487463 -5.58094155 -0.16377481 0 0 Z " fill="#3490EB" transform="translate(21.875,-0.25)"/>
<path d="M0 0 C2.97 0 5.94 0 9 0 C7.71034824 1.37562854 6.37310707 2.70766393 5 4 C4.34 4 3.68 4 3 4 C1.90177333 7.55029209 1.87420487 10.84480108 1.87301636 14.54850769 C1.87145637 15.2045882 1.86989638 15.86066871 1.86828911 16.53663045 C1.86430332 18.73302068 1.86745933 20.92934169 1.87060547 23.12573242 C1.8692504 24.70103496 1.86746986 26.27633718 1.86529541 27.85163879 C1.86073484 32.12820008 1.8625047 36.40473726 1.8656745 40.68129897 C1.86820385 45.15181656 1.86585907 49.62233206 1.86428833 54.09284973 C1.86246889 61.59730399 1.86486764 69.10174841 1.86962891 76.60620117 C1.87507704 85.29383417 1.87330397 93.98144371 1.8678025 102.66907614 C1.86327205 110.12049282 1.86262031 117.57190241 1.86524117 125.02332002 C1.86680355 129.47727837 1.86699864 133.93122568 1.86370468 138.38518333 C1.86082675 142.56874509 1.86280019 146.75227643 1.86859894 150.93583488 C1.86992671 152.47540995 1.86953214 154.01498755 1.86733627 155.55456161 C1.86462556 157.64722396 1.86800481 159.73978729 1.87301636 161.83244324 C1.87339338 163.00622119 1.87377041 164.17999914 1.87415886 165.38934612 C1.70332262 167.92740317 1.70332262 167.92740317 3 169 C9.29815097 168.67595265 14.06955564 166.27164466 19.625 163.4375 C21.27923145 162.59373953 22.93797921 161.75876285 24.6015625 160.93359375 C25.32682129 160.56290771 26.05208008 160.19222168 26.79931641 159.81030273 C29.32273465 158.88116748 31.33171319 158.85507988 34 159 C34 159.66 34 160.32 34 161 C42.14964712 159.67050248 48.7127637 156.41904275 56 152.625 C60.32621195 150.402359 64.65931762 148.19423743 69 146 C69.87140625 145.54592773 70.7428125 145.09185547 71.640625 144.62402344 C72.80851562 144.0482959 72.80851562 144.0482959 74 143.4609375 C74.66 143.12626465 75.32 142.7915918 76 142.44677734 C80.52221444 141.43656587 85.00947518 145.02368788 88.83203125 147.16015625 C89.95319336 147.785271 91.07435547 148.41038574 92.22949219 149.05444336 C92.81516968 149.38282196 93.40084717 149.71120056 94.00427246 150.04953003 C95.82648019 151.07033171 97.65164026 152.08567091 99.47753906 153.09985352 C104.71256438 156.0120539 109.9353532 158.93869484 115.08984375 161.9921875 C115.80873779 162.41363037 116.52763184 162.83507324 117.26831055 163.26928711 C118.54188634 164.02006451 119.80842703 164.78297839 121.06567383 165.56079102 C125.16463507 167.96671584 128.28604679 168.42800819 133 168 C135.08204358 165.91795642 134.25821292 161.4661444 134.31640625 158.58984375 C134.3475779 157.32679161 134.3475779 157.32679161 134.37937927 156.03822327 C134.44496812 153.33806821 134.50380276 150.63781283 134.5625 147.9375 C134.60567637 146.11131759 134.64929036 144.28514546 134.69335938 142.45898438 C134.80065894 137.97276008 134.90189966 133.4864345 135 129 C133.88625 129.020625 132.7725 129.04125 131.625 129.0625 C128 129 128 129 126 128 C126 125.69 126 123.38 126 121 C126.6798999 120.97494385 127.3597998 120.9498877 128.06030273 120.92407227 C131.18617279 120.80694178 134.31182628 120.68475344 137.4375 120.5625 C138.50677734 120.52318359 139.57605469 120.48386719 140.67773438 120.44335938 C150.0727967 120.06985537 158.68906677 119.48438293 167.625 116.4375 C168.3984375 116.17501465 169.171875 115.9125293 169.96875 115.64208984 C187.81342914 109.3416017 202.30274502 99.87492975 211.3125 82.8125 C216.76568426 71.01677096 215.75607971 60.13375841 212.16796875 47.8984375 C211.06770666 45.16802122 210.38715121 43.6861144 208 42 C207.05125 42.061875 206.1025 42.12375 205.125 42.1875 C202 42 202 42 199.3125 39.3125 C197.91912501 37.43713995 196.7985761 35.62592704 195.6875 33.5625 C187.09386578 20.5129073 170.66111009 15.99215948 156.24609375 12.93359375 C149.19163308 11.58191078 142.17670019 11.11166012 135 11 C135 10.01 135 9.02 135 8 C132.03 8.66 129.06 9.32 126 10 C126 9.34 126 8.68 126 8 C116.47380165 6.84560325 106.95827584 6.65466675 97.375 6.4375 C96.49369415 6.41632111 95.61238831 6.39514221 94.70437622 6.37332153 C74.80321261 5.90079944 54.90541631 5.8954463 35 6 C34.505 3.03 34.505 3.03 34 0 C97.69 0 161.38 0 227 0 C227 56.43 227 112.86 227 171 C152.09 171 77.18 171 0 171 C0 114.57 0 58.14 0 0 Z " fill="#FBFCFD" transform="translate(0,0)"/>
<path d="M0 0 C1.66615663 0.04122949 3.33401778 0.04776003 5 0 C5.17305156 14.39576134 5.33939097 28.7915944 5.5 43.1875 C5.51781588 44.78386669 5.51781588 44.78386669 5.53599167 46.41248322 C5.93776414 82.61024072 6.14471567 118.80007971 6 155 C2.39448782 156.72130684 -1.2167776 158.42983327 -4.83374023 160.12695312 C-6.06225819 160.70553606 -7.2891756 161.28753066 -8.5144043 161.87304688 C-10.28004894 162.71608305 -12.0520814 163.54569896 -13.82421875 164.375 C-14.88729248 164.87773437 -15.95036621 165.38046875 -17.0456543 165.8984375 C-19.96661228 166.987551 -21.91896257 167.3207182 -25 167 C-26.80310982 165.19689018 -26.13013095 162.45219889 -26.13371277 160.02226257 C-26.13797775 158.72247467 -26.14224274 157.42268677 -26.14663696 156.08351135 C-26.14628739 154.62948605 -26.14582583 153.17546078 -26.14526367 151.72143555 C-26.14825357 150.20070309 -26.1516557 148.6799714 -26.15544128 147.15924072 C-26.16430418 143.01659746 -26.1666204 138.87397483 -26.16725707 134.731323 C-26.16820455 131.27704136 -26.17188111 127.82276457 -26.17542917 124.3684848 C-26.18358294 116.21936824 -26.18601262 108.07026274 -26.18530273 99.92114258 C-26.18470215 91.50797506 -26.19524796 83.09487171 -26.2110464 74.68172044 C-26.22411395 67.46640778 -26.22948694 60.2511161 -26.22884732 53.0357917 C-26.22859204 48.72307923 -26.23145959 44.41042371 -26.24202538 40.09772301 C-26.25169282 36.04056649 -26.25179487 31.98352149 -26.24450874 27.92636108 C-26.24346111 26.43642324 -26.24583636 24.9464785 -26.2518692 23.45655251 C-26.25956673 21.42394511 -26.2537551 19.39129988 -26.24723816 17.35868835 C-26.24805531 15.65163239 -26.24805531 15.65163239 -26.24888897 13.91009045 C-25.85138385 9.26233183 -24.18323115 6.83590753 -20.6875 3.875 C-14.12914073 -1.50448064 -8.00972653 -2.89713513 0 0 Z " fill="#114894" transform="translate(28,3)"/>
<path d="M0 0 C0 0.33 0 0.66 0 1 C-1.09957031 1.23074219 -2.19914062 1.46148437 -3.33203125 1.69921875 C-11.18164634 3.40789984 -18.42832927 5.24889898 -25.66015625 8.859375 C-27.76320871 9.88456919 -29.7740268 10.61380419 -32 11.3125 C-37.68805811 13.36814318 -42.27762597 17.32151917 -47 21 C-47.64066406 21.46148437 -48.28132813 21.92296875 -48.94140625 22.3984375 C-56.96490736 28.54172141 -62.9929254 37.40713894 -64.67114258 47.35449219 C-66.08280192 58.71064711 -67.25538819 71.49527235 -60 81 C-59.33355469 81.93070312 -58.66710937 82.86140625 -57.98046875 83.8203125 C-52.20639964 91.40446633 -46.51343523 97.09731295 -37 99 C-36.67 105.6 -36.34 112.2 -36 119 C-32.27539276 118.06884819 -29.52128821 116.8620329 -26.125 115.125 C-25.11695313 114.61195312 -24.10890625 114.09890625 -23.0703125 113.5703125 C-20.98988677 112.50627797 -18.92230872 111.41681046 -16.8671875 110.3046875 C-14 109 -14 109 -10 109 C-9.70797839 111.92021613 -9.49654878 114.15440613 -10 117 C-14.40785392 121.17586161 -20.38208479 122.88675945 -26 125 C-26.72960937 125.30292969 -27.45921875 125.60585937 -28.2109375 125.91796875 C-32.28922675 127.58209827 -35.61404005 128.76277564 -40 128 C-42.62698575 126.37764123 -44.19671484 125.4022858 -46 123 C-46.72407055 119.86041255 -46.57204171 116.88816475 -46.375 113.6875 C-46.34792969 112.85154297 -46.32085937 112.01558594 -46.29296875 111.15429688 C-46.22259563 109.10174753 -46.11498322 107.05053409 -46 105 C-46.91894043 104.7987854 -46.91894043 104.7987854 -47.85644531 104.59350586 C-56.17564756 102.29009121 -63.47794615 92.94247432 -68 86 C-68.71484375 83.703125 -68.71484375 83.703125 -69 82 C-69.66 82 -70.32 82 -71 82 C-76.36176694 68.10814929 -78.57051524 54.32980598 -73 40 C-70.96430454 36.08641492 -68.6209384 32.5440362 -66 29 C-65.24783203 27.95392578 -65.24783203 27.95392578 -64.48046875 26.88671875 C-53.31142127 12.77696004 -34.07435534 3.32628487 -16.60546875 0.38671875 C-11.0538784 -0.20873894 -5.57344928 -0.25376582 0 0 Z " fill="#122240" transform="translate(135,11)"/>
<path d="M0 0 C1.78515625 1.265625 1.78515625 1.265625 2.5390625 3.40625 C2.62027344 4.01984375 2.70148438 4.6334375 2.78515625 5.265625 C-3.30063059 10.33419099 -3.30063059 10.33419099 -6.71484375 10.078125 C-7.53984375 9.81 -8.36484375 9.541875 -9.21484375 9.265625 C-14.83416395 8.81716656 -18.1391355 9.82957484 -23.02734375 12.578125 C-24.14753906 13.19300781 -25.26773438 13.80789062 -26.421875 14.44140625 C-29.40955387 16.13162377 -29.40955387 16.13162377 -31.21484375 19.265625 C-31.65426585 23.2204239 -31.50404913 25.63463144 -29.83984375 29.265625 C-26.87559481 31.52410038 -26.06914194 31.602842 -22.46484375 31.453125 C-17.49832891 30.73112064 -14.84738941 28.68066363 -11.09765625 25.5078125 C-9.21484375 24.265625 -9.21484375 24.265625 -5.40234375 24.265625 C-2.21484375 25.265625 -2.21484375 25.265625 0.78515625 27.265625 C0.50210643 30.56787292 -0.12257814 32.15029299 -2.21484375 34.765625 C-11.244892 42.29066521 -19.56380448 44.28381819 -31.21484375 43.265625 C-36.31196705 40.94875077 -39.98317571 36.80259218 -43.21484375 32.265625 C-45.00168113 26.90511286 -45.17105426 20.59104499 -43.6015625 15.1328125 C-38.94324192 5.98034123 -28.18083657 1.90657711 -19.21484375 -1.734375 C-12.12682377 -3.86206273 -6.63617817 -2.86846809 0 0 Z " fill="#F4FAF8" transform="translate(142.21484375,56.734375)"/>
<path d="M0 0 C3.36944359 2.15221004 6.55650286 4.33052773 7.83203125 8.2578125 C9.02429573 14.63184183 9.32386904 20.49652502 5.86328125 26.1796875 C-1.08363935 35.24792884 -12.17947629 40.94954281 -23.34375 42.875 C-28.83701001 43.15574583 -32.38175783 41.71465819 -36.76171875 38.4296875 C-37.44921875 36.2890625 -37.44921875 36.2890625 -37.76171875 34.4296875 C-33.58371051 31.16197156 -30.42865484 29.08021987 -25.01171875 29.4921875 C-18.45521796 29.86829685 -13.13326789 26.99436851 -7.76171875 23.4296875 C-5.29832759 20.79185019 -4.33118179 18.98100777 -4.32421875 15.3671875 C-4.40192847 11.52959934 -4.40192847 11.52959934 -6.32421875 9.4296875 C-10.33435575 7.78450309 -13.7458677 7.69493805 -17.8515625 9.19140625 C-21.80917363 11.05597909 -24.88003732 13.06772583 -27.76171875 16.4296875 C-31.16484613 15.37093676 -33.77525106 14.42066596 -36.76171875 12.4296875 C-36.09908555 7.20921241 -34.16346019 5.32290768 -30.203125 2.078125 C-20.29459988 -4.61211116 -10.42268172 -5.73814826 0 0 Z " fill="#F5FAF8" transform="translate(176.76171875,36.5703125)"/>
<path d="M0 0 C22.7119776 -0.09711081 45.41916854 -0.17005737 68.125 0.4375 C69.28011078 0.4669722 69.28011078 0.4669722 70.45855713 0.49703979 C75.30794135 0.62392725 80.15331768 0.79371913 85 1 C86.89443848 1.07565186 86.89443848 1.07565186 88.82714844 1.15283203 C89.99536133 1.21712402 91.16357422 1.28141602 92.3671875 1.34765625 C93.3866748 1.40058838 94.40616211 1.45352051 95.45654297 1.50805664 C98.32558426 2.06297296 99.31752552 2.63922265 101 5 C101.1875 7.6875 101.1875 7.6875 101 10 C100.505 8.515 100.505 8.515 100 7 C97.03 7.66 94.06 8.32 91 9 C91 8.34 91 7.68 91 7 C81.47380165 5.84560325 71.95827584 5.65466675 62.375 5.4375 C61.49369415 5.41632111 60.61238831 5.39514221 59.70437622 5.37332153 C39.80321261 4.90079944 19.90541631 4.8954463 0 5 C0 3.35 0 1.7 0 0 Z " fill="#67DDF8" transform="translate(35,1)"/>
<path d="M0 0 C0 32.01 0 64.02 0 97 C-0.33 97 -0.66 97 -1 97 C-1.495 50.965 -1.495 50.965 -2 4 C-4.475 3.505 -4.475 3.505 -7 3 C-7.78375 2.773125 -8.5675 2.54625 -9.375 2.3125 C-12.97443844 1.88399542 -15.58941143 2.84283602 -19 4 C-19.845625 4.268125 -20.69125 4.53625 -21.5625 4.8125 C-24.92135361 6.44886458 -27.25894823 8.44583812 -30 11 C-31.09723967 14.29171901 -31.13847167 16.74024023 -31.15821838 20.2071991 C-31.17290161 22.15705467 -31.17290161 22.15705467 -31.18788147 24.14630127 C-31.19378569 25.58996545 -31.19959613 27.03363002 -31.20532227 28.47729492 C-31.21490072 29.99496223 -31.22491078 31.51262687 -31.23532104 33.0302887 C-31.26237972 37.15392941 -31.28338408 41.27758158 -31.30332303 45.40126204 C-31.32517663 49.70944928 -31.35256839 54.01760116 -31.37937927 58.32575989 C-31.42931462 66.48547951 -31.47425033 74.64521875 -31.51740164 82.80497676 C-31.56676681 92.09388929 -31.62168761 101.38276634 -31.67708123 110.67164457 C-31.7909142 129.78106345 -31.89775039 148.8905158 -32 168 C-32.33 168 -32.66 168 -33 168 C-33.04669504 147.20768444 -33.08197659 126.41537751 -33.10362434 105.62302017 C-33.11394237 95.9690399 -33.12801276 86.31509219 -33.15087891 76.66113281 C-33.17079666 68.24796393 -33.18371261 59.83481861 -33.18817699 51.42162681 C-33.19078711 46.96581082 -33.19693295 42.51006228 -33.21146011 38.05426788 C-33.22501852 33.86170731 -33.22922617 29.66924209 -33.22621536 25.47666168 C-33.22676631 23.93673179 -33.23075413 22.39679877 -33.23841095 20.85688782 C-33.24834506 18.75621983 -33.24597465 16.65591297 -33.24050903 14.55523682 C-33.24235262 13.37902897 -33.24419621 12.20282112 -33.24609566 10.99097061 C-32.99481281 7.93695644 -32.80783205 6.44634337 -31 4 C-25 0 -25 0 0 0 Z " fill="#588FC2" transform="translate(34,0)"/>
<path d="M0 0 C18.20650872 -0.72718304 35.11016227 3.70407807 49 16 C58.19455878 25.77683569 58.19455878 25.77683569 59 31 C56.07249091 31.29771279 53.85372457 31.51451911 51 31 C48.25190446 28.37404204 46.48228556 25.89567319 44.6875 22.5625 C35.29936175 8.30643821 17.27519475 4.59540693 1.70556641 1.34790039 C0.86131104 1.1756897 0.86131104 1.1756897 0 1 C0 0.67 0 0.34 0 0 Z " fill="#BDE98E" transform="translate(151,11)"/>
<path d="M0 0 C2.97 0 5.94 0 9 0 C7.71034824 1.37562854 6.37310707 2.70766393 5 4 C4.34 4 3.68 4 3 4 C1.90177333 7.55029209 1.87420487 10.84480108 1.87301636 14.54850769 C1.87145637 15.2045882 1.86989638 15.86066871 1.86828911 16.53663045 C1.86430332 18.73302068 1.86745933 20.92934169 1.87060547 23.12573242 C1.8692504 24.70103496 1.86746986 26.27633718 1.86529541 27.85163879 C1.86073484 32.12820008 1.8625047 36.40473726 1.8656745 40.68129897 C1.86820385 45.15181656 1.86585907 49.62233206 1.86428833 54.09284973 C1.86246889 61.59730399 1.86486764 69.10174841 1.86962891 76.60620117 C1.87507704 85.29383417 1.87330397 93.98144371 1.8678025 102.66907614 C1.86327205 110.12049282 1.86262031 117.57190241 1.86524117 125.02332002 C1.86680355 129.47727837 1.86699864 133.93122568 1.86370468 138.38518333 C1.86082675 142.56874509 1.86280019 146.75227643 1.86859894 150.93583488 C1.86992671 152.47540995 1.86953214 154.01498755 1.86733627 155.55456161 C1.86462556 157.64722396 1.86800481 159.73978729 1.87301636 161.83244324 C1.87339338 163.00622119 1.87377041 164.17999914 1.87415886 165.38934612 C1.70332262 167.92740317 1.70332262 167.92740317 3 169 C5.67058851 169.14115161 8.32432238 169.04247107 11 169 C10.505 169.99 10.505 169.99 10 171 C6.7 171 3.4 171 0 171 C0 114.57 0 58.14 0 0 Z " fill="#EFF5FA" transform="translate(0,0)"/>
<path d="M0 0 C28.35303119 -0.12123056 56.66131742 0.05142485 85 1 C85 1.33 85 1.66 85 2 C79.06 2.33 73.12 2.66 67 3 C67 3.33 67 3.66 67 4 C64.35409986 4.02684679 61.70846904 4.04676357 59.0625 4.0625 C57.93038086 4.07506836 57.93038086 4.07506836 56.77539062 4.08789062 C54.85005687 4.09652441 52.92464419 4.05224333 51 4 C50.505 3.505 50.505 3.505 50 3 C48.43452952 2.90673284 46.86487228 2.88254418 45.29663086 2.88647461 C43.79518776 2.88658791 43.79518776 2.88658791 42.26341248 2.88670349 C41.1748848 2.89186478 40.08635712 2.89702606 38.96484375 2.90234375 C37.3022628 2.90446617 37.3022628 2.90446617 35.60609436 2.90663147 C32.04986931 2.91224967 28.49370617 2.92480525 24.9375 2.9375 C22.53320403 2.94251266 20.12890708 2.94707597 17.72460938 2.95117188 C11.81638496 2.96222501 5.9081969 2.97898083 0 3 C0 2.01 0 1.02 0 0 Z " fill="#98ECFA" transform="translate(35,1)"/>
<path d="M0 0 C-0.33 1.32 -0.66 2.64 -1 4 C-1.54527344 3.88140625 -2.09054688 3.7628125 -2.65234375 3.640625 C-9.94053788 2.39477985 -14.78117476 4.13336234 -20.828125 8.2421875 C-23.68857638 10.477783 -25.73076934 12.57307723 -27 16 C-27.99 16 -28.98 16 -30 16 C-30.39147706 12.00693396 -30.54594462 9.77185273 -28.1875 6.4375 C-19.23030471 -1.21822247 -11.13675781 -3.63649234 0 0 Z " fill="#3BA28F" transform="translate(140,67)"/>
<path d="M0 0 C1.12148437 0.00322266 2.24296875 0.00644531 3.3984375 0.00976562 C4.5740625 0.01814453 5.7496875 0.02652344 6.9609375 0.03515625 C8.14429687 0.03966797 9.32765625 0.04417969 10.546875 0.04882812 C13.47661257 0.06064158 16.40625022 0.07711367 19.3359375 0.09765625 C19.3359375 0.42765625 19.3359375 0.75765625 19.3359375 1.09765625 C18.10617188 1.20722656 16.87640625 1.31679688 15.609375 1.4296875 C13.97650155 1.58922111 12.34369224 1.74941218 10.7109375 1.91015625 C9.49857422 2.01553711 9.49857422 2.01553711 8.26171875 2.12304688 C0.33664296 2.92844076 -4.83215363 5.79592091 -10.6640625 11.09765625 C-11.3240625 12.08765625 -11.9840625 13.07765625 -12.6640625 14.09765625 C-13.27770804 6.85663889 -13.27770804 6.85663889 -10.2890625 3.16015625 C-6.51128032 0.19189882 -4.74727955 -0.02397616 0 0 Z " fill="#368ACA" transform="translate(14.6640625,-0.09765625)"/>
<path d="M0 0 C7.62368119 0.89690367 12.68012511 6.31687822 17.875 11.5 C18.46796875 12.06847656 19.0609375 12.63695312 19.671875 13.22265625 C20.23132813 13.77824219 20.79078125 14.33382812 21.3671875 14.90625 C21.87362793 15.40447266 22.38006836 15.90269531 22.90185547 16.41601562 C24 18 24 18 24 22 C20.74698204 20.6068597 18.96613784 19.05039845 16.75 16.3125 C11.82300875 10.49738157 6.55051837 5.88937028 0 2 C0 1.34 0 0.68 0 0 Z " fill="#DFF8C0" transform="translate(181,19)"/>
<path d="M0 0 C16.83 0 33.66 0 51 0 C51 0.33 51 0.66 51 1 C45.06 1.33 39.12 1.66 33 2 C33 2.33 33 2.66 33 3 C30.35409986 3.02684679 27.70846904 3.04676357 25.0625 3.0625 C23.93038086 3.07506836 23.93038086 3.07506836 22.77539062 3.08789062 C20.85005687 3.09652441 18.92464419 3.05224333 17 3 C16.67 2.67 16.34 2.34 16 2 C12.40379558 1.96817518 8.81770385 2.06872574 5.22265625 2.16015625 C2 2 2 2 0 0 Z " fill="#85E1F6" transform="translate(69,2)"/>
<path d="M0 0 C-5.41142304 3.77541142 -5.41142304 3.77541142 -8.375 4.90625 C-16.84197271 8.43415529 -23.84308368 15.36676064 -30 22 C-30.66 21.67 -31.32 21.34 -32 21 C-27.60503026 15.34932462 -22.78364942 10.79251569 -17 6.625 C-16.14704346 6.00069092 -16.14704346 6.00069092 -15.27685547 5.36376953 C-4.43989058 -2.21994529 -4.43989058 -2.21994529 0 0 Z " fill="#58B158" transform="translate(109,21)"/>
<path d="M0 0 C0.33 0 0.66 0 1 0 C3.14861391 9.35686703 2.60324126 18.1420319 -1 27 C-1.92157102 23.9129597 -2.06878118 21.29711445 -1.9140625 18.0859375 C-1.84832031 16.69761719 -1.84832031 16.69761719 -1.78125 15.28125 C-1.7296875 14.3221875 -1.678125 13.363125 -1.625 12.375 C-1.58117187 11.40820312 -1.53734375 10.44140625 -1.4921875 9.4453125 C-1.13101708 2.26203416 -1.13101708 2.26203416 0 0 Z " fill="#5ED38B" transform="translate(214,54)"/>
<path d="M0 0 C0 0.33 0 0.66 0 1 C-1.14597656 1.26554688 -2.29195312 1.53109375 -3.47265625 1.8046875 C-5.00262536 2.16136742 -6.53257209 2.51814337 -8.0625 2.875 C-9.19075195 3.13603516 -9.19075195 3.13603516 -10.34179688 3.40234375 C-14.93743017 4.47664764 -19.47297949 5.66534057 -24 7 C-23.67 5.35 -23.34 3.7 -23 2 C-15.27111181 0.04596958 -7.94957992 -0.22428282 0 0 Z " fill="#1F2E4B" transform="translate(135,11)"/>
<path d="M0 0 C3.59930552 2.62652025 6.07666989 4.93963643 8 9 C7.67 9.66 7.34 10.32 7 11 C3.8125 11.375 3.8125 11.375 0 11 C-2.1403498 9.18811972 -3.38988302 7.34198833 -5 5 C-4.67 4.34 -4.34 3.68 -4 3 C-2.76302083 4.52994792 -1.52604167 6.05989583 -0.2890625 7.58984375 C0.9666391 9.13266437 0.9666391 9.13266437 3 10 C2.01 6.7 1.02 3.4 0 0 Z " fill="#71DA84" transform="translate(202,31)"/>
<path d="M0 0 C1.35158203 0.15275391 1.35158203 0.15275391 2.73046875 0.30859375 C3.41753906 0.39238281 4.10460937 0.47617188 4.8125 0.5625 C4.4825 1.8825 4.1525 3.2025 3.8125 4.5625 C3.23242188 4.47871094 2.65234375 4.39492187 2.0546875 4.30859375 C-2.61065303 3.70040579 -6.54192117 3.49044335 -11.1875 4.5625 C-7.96421871 -0.19567714 -5.57503671 -0.65162767 0 0 Z " fill="#20A57B" transform="translate(135.1875,66.4375)"/>
<path d="M0 0 C-1.7749763 1.18331753 -3.57947994 2.32688612 -5.4375 3.375 C-8.07687502 4.9094675 -8.07687502 4.9094675 -10.125 7.1875 C-12 9 -12 9 -15 9 C-15 5 -15 5 -13 3 C-8.47929032 0.26654764 -5.25830521 -0.31549831 0 0 Z " fill="#3BAC8E" transform="translate(133,65)"/>
<path d="M0 0 C0.66 0 1.32 0 2 0 C2 1.65 2 3.3 2 5 C-0.97 6.65 -3.94 8.3 -7 10 C-7.33 8.35 -7.66 6.7 -8 5 C-4.93882432 2.37613513 -4.26826873 2 0 2 C0 1.34 0 0.68 0 0 Z " fill="#33AD86" transform="translate(146,61)"/>
<path d="M0 0 C2.20805524 -0.0544452 4.41650554 -0.09299283 6.625 -0.125 C7.85476562 -0.14820313 9.08453125 -0.17140625 10.3515625 -0.1953125 C13.94316041 -0.0030428 16.66661175 0.69741444 20 2 C20 2.99 20 3.98 20 5 C13.33333333 3.66666667 6.66666667 2.33333333 0 1 C0 0.67 0 0.34 0 0 Z " fill="#ACDE7D" transform="translate(151,11)"/>
<path d="M0 0 C3.9298688 1.6626368 6.95703183 4.0261902 10 7 C10.375 9.8125 10.375 9.8125 10 12 C8.8944811 11.06409496 7.79064547 10.12620142 6.6875 9.1875 C6.07261719 8.66542969 5.45773438 8.14335937 4.82421875 7.60546875 C4.22222656 7.07566406 3.62023437 6.54585937 3 6 C2.42894531 5.50113281 1.85789063 5.00226562 1.26953125 4.48828125 C0 3 0 3 0 0 Z " fill="#A2E186" transform="translate(193,23)"/>
<path d="M0 0 C0.33 0 0.66 0 1 0 C0.83747833 7.90446304 -0.59006704 13.40950978 -5 20 C-6.02826931 16.86332092 -5.99386675 15.16815258 -4.78515625 12.109375 C-4.37426758 11.04589844 -4.37426758 11.04589844 -3.95507812 9.9609375 C-3.66052734 9.23132813 -3.36597656 8.50171875 -3.0625 7.75 C-2.77181641 7.00492187 -2.48113281 6.25984375 -2.18164062 5.4921875 C-1.46426278 3.65758186 -0.73342561 1.82824935 0 0 Z " fill="#36C887" transform="translate(212,72)"/>
<path d="M0 0 C1.93681161 -0.08107583 3.8745934 -0.13922475 5.8125 -0.1875 C6.89144531 -0.22230469 7.97039062 -0.25710937 9.08203125 -0.29296875 C12 0 12 0 13.875 1.34375 C15.41566389 3.61194961 15.21715415 5.32176545 15 8 C14.67 6.68 14.34 5.36 14 4 C12.906875 4.04125 11.81375 4.0825 10.6875 4.125 C7 4 7 4 4 2 C2.67432801 1.31822584 1.34246312 0.64808564 0 0 Z " fill="#90DDF2" transform="translate(121,3)"/>
<path d="M0 0 C6.43311296 -0.09507063 12.65758005 -0.15316726 19 1 C16.03312999 2.64826111 13.34373475 3.44271087 10 4 C10 3.34 10 2.68 10 2 C6.7 1.67 3.4 1.34 0 1 C0 0.67 0 0.34 0 0 Z " fill="#58D4FB" transform="translate(116,6)"/>
<path d="M0 0 C0.66 0.33 1.32 0.66 2 1 C-2.62 5.62 -7.24 10.24 -12 15 C-12 10.09687565 -8.29800369 7.38658643 -5 4 C-3.37458956 2.61667196 -1.72614587 1.25537882 0 0 Z " fill="#192F57" transform="translate(81,28)"/>
<path d="M0 0 C2.86001033 1.28207359 5.07039412 2.49151236 7 5 C7 6.32 7 7.64 7 9 C3.64564078 7.61198929 1.88709697 6.11371 0 3 C0 2.01 0 1.02 0 0 Z " fill="#D7F7CA" transform="translate(198,32)"/>
<path d="M0 0 C0.66 0.33 1.32 0.66 2 1 C-1.66666667 4.66666667 -5.33333333 8.33333333 -9 12 C-8.52379711 7.62346871 -7.33100111 5.93461995 -3.9375 3.1875 C-3.20402344 2.58292969 -2.47054687 1.97835937 -1.71484375 1.35546875 C-1.14894531 0.90816406 -0.58304688 0.46085937 0 0 Z " fill="#D5F2DE" transform="translate(149,37)"/>
<path d="M0 0 C3.95820859 0.56545837 6.6659053 1.80902348 10 4 C9.01 4.495 9.01 4.495 8 5 C7.67 5.66 7.34 6.32 7 7 C5.82780457 6.21654285 4.66236332 5.42297164 3.5 4.625 C2.8503125 4.18414063 2.200625 3.74328125 1.53125 3.2890625 C1.0259375 2.86367188 0.520625 2.43828125 0 2 C0 1.34 0 0.68 0 0 Z " fill="#DAF6AD" transform="translate(181,19)"/>
<path d="M0 0 C3 3.625 3 3.625 3 7 C1.68 7.33 0.36 7.66 -1 8 C-1.625 5.6875 -1.625 5.6875 -2 3 C-1.34 2.01 -0.68 1.02 0 0 Z " fill="#4DCF7A" transform="translate(210,43)"/>
<path d="M0 0 C0.99 0.33 1.98 0.66 3 1 C0.03 3.97 -2.94 6.94 -6 10 C-6.66 9.67 -7.32 9.34 -8 9 C-5.36 6.03 -2.72 3.06 0 0 Z " fill="#43AC5E" transform="translate(85,33)"/>
<path d="M0 0 C0.66 0.33 1.32 0.66 2 1 C0.73046875 2.49739583 -0.5390625 3.99479167 -1.80859375 5.4921875 C-3.0878152 7.00594079 -3.0878152 7.00594079 -4 9 C-4.66 9 -5.32 9 -6 9 C-5.8125 6.1875 -5.8125 6.1875 -5 3 C-2.5625 1.0625 -2.5625 1.0625 0 0 Z " fill="#1D9E7F" transform="translate(117,74)"/>
<path d="M0 0 C4.875 3.625 4.875 3.625 6 7 C5.01 7.99 4.02 8.98 3 10 C2.01 6.7 1.02 3.4 0 0 Z " fill="#7FDC7F" transform="translate(202,31)"/>
<path d="M0 0 C0.66 0.33 1.32 0.66 2 1 C0.88121617 2.17262904 -0.24523051 3.33795138 -1.375 4.5 C-2.00148438 5.1496875 -2.62796875 5.799375 -3.2734375 6.46875 C-5 8 -5 8 -7 8 C-5.50902342 4.2047869 -3.24299151 2.38957269 0 0 Z " fill="#D1F1E5" transform="translate(108,62)"/>
<path d="M0 0 C-2.8125 2.0625 -2.8125 2.0625 -6 4 C-6.99 3.67 -7.98 3.34 -9 3 C-6.38220849 -0.01046024 -3.86655673 -1.93327837 0 0 Z " fill="#6EBE54" transform="translate(109,21)"/>
<path d="M0 0 C2.97 0 5.94 0 9 0 C8.67 0.99 8.34 1.98 8 3 C4.62537285 2.45276317 2.91765 1.9451 0 0 Z " fill="#196FBE" transform="translate(24,1)"/>
<path d="M0 0 C0.99 0.66 1.98 1.32 3 2 C3.1875 4.625 3.1875 4.625 3 7 C2.67 5.68 2.34 4.36 2 3 C-0.31 3 -2.62 3 -5 3 C-2 1 -2 1 0 0 Z " fill="#84E2F7" transform="translate(133,4)"/>
</svg>
